<svg width="32" height="32" viewBox="0 0 32 32" fill="none" xmlns="http://www.w3.org/2000/svg">
<path d="M29.3333 8V12.6667L27.3333 13.3333L25.28 10.0533C25.1067 9.77333 24.6667 9.89333 24.6667 10.2267V15C24.6667 16.3067 24.1467 17.48 23.3333 18.3733V28H20V20H19.6667C19.3867 20 19.1067 19.96 18.84 19.92L12.92 18.9333L11.4267 21.6133L12.7067 28H9.33334L8 21.6667C7.96 21.2667 8 20.8667 8.21334 20.52L9.57334 18.1067C8.91132 17.7387 8.3566 17.2045 7.96381 16.5569C7.57103 15.9093 7.35374 15.1705 7.33334 14.4133C7.28 14.6133 7.25334 14.9067 7.29334 15.3333C7.33334 15.92 7.48 16.7867 7.38667 17.7467C7.33334 18.7067 6.89334 19.6933 6.33334 20.3467C5.76 21 5.13334 21.4533 4.46667 21.8L3.53334 20.8667C3.78667 20.24 4.04 19.68 4.09334 19.16C4.17334 18.6667 4.08 18.2667 3.93334 17.9067L3.22667 16.4C2.94667 15.72 2.6 14.7333 2.66667 13.5733C2.70667 12.44 3.33334 10.96 4.52 10.1467C5.72 9.33333 7.01334 9.22667 8.06667 9.44C8.73334 9.57333 9.41334 9.89333 10 10.3467C10.4933 10.12 11.0667 10 11.6667 10H19.3333V9.33333C19.3333 6.38667 21.72 4 24.6667 4H29.3333L28.1467 5.78667C28.8667 6.26667 29.3333 7.08 29.3333 8Z" fill="#2B1CFB"/>
</svg>
